<svg version="1.1" id="Layer_1" xmlns="http://www.w3.org/2000/svg" xmlns:xlink="http://www.w3.org/1999/xlink" x="0px" y="0px"
	 width="100%" viewBox="0 0 720 1024" enable-background="new 0 0 720 1024" xml:space="preserve">
<path fill="#000000" opacity="1.000000" stroke="none" 
	d="
M369.693207,579.173645 
	C348.891235,524.221619 328.191345,469.644379 307.313538,414.598022 
	C303.506775,417.144653 299.731018,416.975861 295.943298,416.943329 
	C280.284058,416.808929 264.624207,416.751099 248.964828,416.632629 
	C243.656448,416.592499 242.359009,417.699646 242.315964,422.893433 
	C242.255203,430.224365 242.347458,437.556519 242.286804,444.887451 
	C242.273895,446.448364 242.891129,448.164612 241.255249,450.042114 
	C235.560623,433.483154 221.217224,431.931976 207.257568,430.432892 
	C197.512955,429.386505 187.636902,429.440002 177.815033,429.280548 
	C171.108215,429.171631 164.558502,428.228394 158.013092,426.901337 
	C150.764206,425.431641 144.451340,422.437012 139.639297,416.641876 
	C138.357819,415.098633 136.921051,413.662201 134.758286,413.419250 
	C117.034119,411.427887 103.339478,401.999390 93.140976,388.293396 
	C82.306847,373.733124 69.312584,360.946960 59.259892,345.827240 
	C53.125313,336.600586 49.174782,326.334930 45.990913,315.769592 
	C45.657314,314.662567 45.432064,313.505249 45.986557,312.431519 
	C47.335472,311.865631 47.934155,312.800598 48.501411,313.569794 
	C61.008728,330.530060 78.964569,336.887543 98.844070,339.794189 
	C108.282539,341.174225 117.779778,341.071381 127.243240,341.629578 
	C142.682312,342.540253 158.184662,342.299194 173.550354,344.526855 
	C184.858963,346.166351 195.784225,349.018799 205.622711,354.957886 
	C209.087982,357.049774 212.500977,357.804199 216.443344,357.780029 
	C259.584900,357.515564 302.721344,356.575928 345.868500,356.839996 
	C350.853638,356.870514 353.154388,358.455627 354.915253,363.130798 
	C379.621368,428.726837 404.532379,494.245636 429.388672,559.785095 
	C432.340424,567.568054 435.175995,575.396545 438.236359,583.136292 
	C439.746124,586.954407 438.575256,588.339233 434.632996,588.319397 
	C415.638123,588.223755 396.641388,588.068237 377.648529,588.257690 
	C371.228149,588.321716 371.853668,582.933167 369.693207,579.173645 
z"/>
<path fill="#000000" opacity="1.000000" stroke="none" 
	d="
M532.462036,586.884399 
	C518.696533,586.798706 505.371338,587.351990 492.050079,586.612854 
	C489.000061,586.443665 487.302460,585.268250 486.166046,582.346924 
	C472.166626,546.359131 458.050812,510.416534 443.979675,474.456573 
	C436.884918,456.325378 429.848053,438.171509 422.723694,420.052002 
	C420.646790,414.769745 421.102386,413.869904 426.691742,413.853241 
	C444.684540,413.799561 462.678345,413.889465 480.669678,413.712524 
	C484.466522,413.675201 486.307678,415.054169 487.568359,418.603333 
	C493.918945,436.481506 500.499878,454.277863 507.001251,472.102448 
	C507.286407,472.884216 507.528473,473.688232 507.888550,474.434662 
	C508.515839,475.734894 508.783600,477.539917 510.708344,477.482941 
	C512.326233,477.435028 512.658569,475.876862 513.222839,474.696808 
	C513.581970,473.945770 513.925110,473.184692 514.228333,472.409698 
	C526.905579,440.007507 539.864258,407.711334 552.142944,375.158691 
	C559.541199,355.544769 565.882324,335.532074 572.691589,315.696167 
	C573.116699,314.458008 573.330200,313.118500 574.778503,312.058289 
	C576.050781,313.786530 575.298645,315.551788 574.963989,317.176300 
	C573.517212,324.200073 572.715210,331.328003 572.429871,338.452148 
	C571.368896,364.945099 572.281982,391.422607 575.623047,417.702820 
	C577.365295,431.406891 579.486755,445.042816 579.649658,458.865509 
	C580.067505,494.310852 575.225403,528.475586 552.380859,557.348083 
	C546.532959,564.739075 542.678711,572.769409 539.605103,581.370483 
	C538.382751,584.791138 536.629639,586.836548 532.462036,586.884399 
z"/>
<path fill="#000000" opacity="1.000000" stroke="none" 
	d="
M614.563721,372.615479 
	C619.837524,395.530334 625.965088,417.832123 629.838318,440.623871 
	C633.471436,462.002563 635.892273,483.465057 631.795715,505.097351 
	C625.951111,535.959961 607.867676,557.580383 580.815308,572.339417 
	C568.632507,578.985962 555.732178,583.905151 542.371277,587.624756 
	C541.456482,587.879395 540.508423,588.014343 539.658813,588.187988 
	C538.599487,586.355469 539.992371,585.865662 540.820312,585.232178 
	C566.419617,565.646790 578.793823,538.738831 583.707336,507.724457 
	C587.641663,482.891235 586.811340,457.965485 585.160767,433.008759 
	C583.304993,404.947845 579.819824,376.974396 579.900940,348.810791 
	C579.952454,330.933807 581.560303,313.207581 589.432678,296.689606 
	C594.779785,285.470215 603.016113,277.050659 613.933655,271.200104 
	C614.665588,270.807861 615.416321,270.425781 616.200378,270.165436 
	C616.634644,270.021210 617.156189,270.139587 617.711914,270.139587 
	C618.639221,271.915375 617.096924,272.910217 616.357666,274.029999 
	C609.640320,284.205841 606.808716,295.525055 606.285217,307.553864 
	C605.327026,329.572693 609.543884,350.935577 614.563721,372.615479 
z"/>
<path fill="#000000" opacity="1.000000" stroke="none" 
	d="
M185.907104,448.009918 
	C185.904007,446.513580 185.899658,445.514832 185.895798,444.516052 
	C185.851578,433.102264 185.885681,432.911499 196.964874,434.890320 
	C208.209976,436.898834 218.968384,440.363129 227.755280,448.124786 
	C242.328308,460.997498 246.396912,480.808197 239.007202,501.754608 
	C235.080856,512.883972 229.051712,522.788757 221.566101,531.814575 
	C214.983200,539.751831 207.961288,547.312378 201.882309,555.681885 
	C195.911484,563.902527 190.943237,572.621094 187.741714,582.342163 
	C187.129837,582.268005 186.517944,582.193848 185.906067,582.119690 
	C185.906067,537.582275 185.906067,493.044891 185.907104,448.009918 
z"/>
<path fill="#000000" opacity="1.000000" stroke="none" 
	d="
M150.019714,641.723633 
	C173.670547,641.724976 196.825821,641.733459 219.981094,641.736206 
	C250.608749,641.739868 281.236420,641.732971 311.864075,641.741028 
	C412.331451,641.767395 512.798828,641.797485 613.266174,641.833679 
	C615.597778,641.834534 617.932068,641.873291 620.260071,641.992126 
	C621.729187,642.067139 622.913818,642.776184 622.937256,644.387695 
	C622.961548,646.053162 621.631592,646.635925 620.255676,646.806091 
	C618.608948,647.009766 616.934937,647.063293 615.272766,647.063538 
	C533.610413,647.077209 451.941284,647.734070 370.287720,646.887878 
	C295.135254,646.109070 219.989105,646.807190 144.842560,646.253662 
	C142.497253,646.236389 138.259125,647.789307 138.230042,644.209106 
	C138.197189,640.169373 142.568420,642.236877 145.032730,641.788879 
	C146.485535,641.524780 148.024139,641.732605 150.019714,641.723633 
z"/>
<path fill="#000000" opacity="1.000000" stroke="none" 
	d="
M202.142395,566.167053 
	C207.849030,559.826721 213.949066,554.415283 220.263702,549.257080 
	C227.498734,543.347107 234.374847,537.102234 240.138885,529.705872 
	C240.820114,528.831665 241.431335,527.697021 242.950256,527.960266 
	C244.426270,529.191223 244.058304,530.963257 244.061966,532.557861 
	C244.098267,548.364319 243.981750,564.172058 244.148376,579.976868 
	C244.195343,584.433044 242.708969,586.231079 238.099777,586.169861 
	C223.793198,585.979736 209.482437,586.109009 195.173325,586.095459 
	C193.699005,586.094055 192.164993,586.267395 190.208084,584.807434 
	C192.649292,577.863281 197.181580,572.091370 202.142395,566.167053 
z"/>
<path fill="#000000" opacity="1.000000" stroke="none" 
	d="
M385.105164,621.449646 
	C383.481415,626.136780 382.032806,630.713989 380.816528,635.352234 
	C380.111572,638.040344 379.069031,639.931763 375.864838,639.857117 
	C372.886597,639.787720 372.025146,638.032043 371.414673,635.486877 
	C369.281586,626.593628 366.944611,617.749451 364.727234,608.876099 
	C364.255493,606.988342 363.292267,604.721436 366.264252,604.024414 
	C369.075317,603.365234 371.169006,604.305481 371.904266,607.386292 
	C373.039825,612.144165 374.215881,616.892334 376.536407,621.646851 
	C377.611603,617.707214 378.767365,613.787231 379.731506,609.820618 
	C380.302368,607.472046 381.264862,605.872742 383.976990,605.790649 
	C386.621674,605.710693 387.721344,607.109375 388.587769,609.417664 
	C390.426788,614.317322 391.592010,619.527710 394.713562,624.646240 
	C397.592255,620.029236 396.620789,615.346985 397.680603,611.128174 
	C398.041840,609.690308 397.944672,608.143066 398.217621,606.675659 
	C398.565521,604.805298 399.687073,603.705627 401.712433,603.913940 
	C403.859283,604.134766 404.453247,605.618469 404.282532,607.469482 
	C403.870361,611.938721 403.530579,616.424438 402.853485,620.856506 
	C402.200775,625.128906 401.233978,629.347900 401.088074,633.694641 
	C400.985260,636.757080 399.287994,638.161194 396.242828,638.090820 
	C393.390259,638.024780 390.649323,638.302307 389.614471,634.445312 
	C388.429718,630.029907 388.264832,625.239502 385.105164,621.449646 
z"/>
<path fill="#000000" opacity="1.000000" stroke="none" 
	d="
M187.944138,639.081421 
	C184.601944,638.794312 183.661926,636.999023 183.651276,634.291138 
	C183.614716,624.989868 183.553024,615.688049 183.395874,606.388245 
	C183.347565,603.529175 184.692963,602.590759 187.341278,602.630981 
	C192.988190,602.716736 198.636902,602.676758 204.284729,602.710938 
	C208.329330,602.735413 212.089981,603.649658 213.699478,607.815918 
	C215.259018,611.852844 212.705887,614.793335 210.160522,617.496643 
	C208.937881,618.795166 207.487839,619.879639 205.940216,621.236938 
	C209.829559,624.951050 213.632065,628.463501 213.573334,634.243652 
	C213.547546,636.780518 213.437286,638.987793 210.231232,639.282227 
	C207.474884,639.535400 205.233368,638.950989 204.623886,635.769531 
	C203.766083,631.291931 201.603424,627.708496 197.490997,625.505737 
	C193.812149,623.535095 192.379654,624.358459 192.109940,628.559631 
	C191.909927,631.675049 192.618256,634.910339 190.941162,637.828491 
	C190.390045,638.787354 189.388626,638.991516 187.944138,639.081421 
M197.566513,608.910522 
	C193.541977,608.527222 191.836426,610.199158 192.123947,614.368469 
	C192.438828,618.934692 195.632812,617.999695 198.282425,617.873657 
	C202.113113,617.691284 206.408112,616.617188 206.155258,612.154236 
	C205.916519,607.940552 201.430435,609.178711 197.566513,608.910522 
z"/>
<path fill="#000000" opacity="1.000000" stroke="none" 
	d="
M275.649811,614.030884 
	C275.783875,602.592712 274.397797,603.805481 285.545898,603.704529 
	C287.206940,603.689453 288.871002,603.651367 290.529053,603.726501 
	C297.867645,604.058960 303.178101,607.292358 304.889069,613.222046 
	C307.110046,620.919250 307.946136,628.677063 301.792938,635.250854 
	C299.775146,637.406555 296.950836,638.194214 294.097961,638.292480 
	C288.953644,638.469788 283.797485,638.293701 278.652069,638.452820 
	C275.644409,638.545776 274.798828,637.004333 275.118683,634.435913 
	C275.943481,627.812439 275.465485,621.160828 275.649811,614.030884 
M297.706085,617.779907 
	C296.647552,612.765198 292.905029,611.950073 288.636078,612.034851 
	C286.523499,612.076782 284.283173,612.527649 284.498566,615.178894 
	C284.886200,619.949890 282.574188,625.139832 286.450348,629.392151 
	C286.809082,629.785706 287.697357,629.730347 288.348541,629.818359 
	C295.931976,630.843262 299.398712,626.719421 297.706085,617.779907 
z"/>
<path fill="#000000" opacity="1.000000" stroke="none" 
	d="
M473.276520,633.471313 
	C471.584564,638.927551 469.182404,639.725708 465.579041,636.224243 
	C462.100494,632.844055 459.648071,628.638000 456.939728,624.651489 
	C455.649323,622.752136 454.425385,620.803833 451.955536,619.519592 
	C450.058258,623.013916 450.466125,626.486877 450.406036,629.893799 
	C450.371063,631.877197 450.448792,633.918091 450.004791,635.823303 
	C449.550873,637.771484 447.974243,638.918274 445.873505,638.629272 
	C443.969208,638.367188 442.881439,636.937561 442.936462,635.125793 
	C443.223846,625.660706 443.412506,616.182068 444.125641,606.745178 
	C444.443207,602.542908 448.439178,601.506897 451.915955,604.798462 
	C455.152557,607.862671 457.788971,611.560669 460.692169,614.977417 
	C462.051178,616.576843 462.837524,618.726257 465.901337,619.951538 
	C465.901337,615.993103 465.914001,612.427795 465.897247,608.862671 
	C465.884369,606.124939 465.750793,603.085693 469.488647,602.914673 
	C473.418854,602.734863 473.259186,605.900330 473.274017,608.580566 
	C473.319122,616.731628 473.296295,624.882935 473.276520,633.471313 
z"/>
<path fill="#000000" opacity="1.000000" stroke="none" 
	d="
M592.035522,614.105347 
	C595.561462,618.029907 600.125488,619.287720 604.617798,620.452393 
	C609.394653,621.690918 612.271301,624.253967 612.512695,629.356140 
	C612.760193,634.585266 609.315918,636.751587 605.089111,638.024719 
	C598.029724,640.151062 590.916687,639.917358 583.950989,637.608704 
	C578.707336,635.870850 581.213562,631.802063 581.205505,627.887390 
	C585.330994,629.335388 589.035034,630.570679 592.688477,631.940735 
	C595.112671,632.849792 597.587646,632.820557 600.081909,632.659363 
	C601.703796,632.554504 602.997253,631.769226 603.435242,630.134888 
	C603.891541,628.431763 602.940796,627.091797 601.583191,626.387451 
	C599.380737,625.244629 597.046753,624.321960 594.701538,623.495667 
	C591.555420,622.387329 588.390686,621.343628 585.562988,619.527771 
	C578.600464,615.056824 578.839050,607.652893 586.243713,603.786499 
	C593.438354,600.029724 600.877869,601.127869 608.024048,603.905457 
	C611.476990,605.247559 610.598267,608.824585 609.694214,611.339905 
	C608.684082,614.150391 606.462585,612.351501 604.646423,611.737366 
	C602.286926,610.939514 599.888123,609.836670 597.472107,609.742798 
	C594.929382,609.644043 591.452698,609.384155 592.035522,614.105347 
z"/>
<path fill="#000000" opacity="1.000000" stroke="none" 
	d="
M343.300873,632.689331 
	C347.588135,632.662476 348.101349,628.645935 350.736877,626.427490 
	C352.152893,629.598450 351.843292,632.544922 351.820587,635.427246 
	C351.799835,638.061218 350.451447,639.275513 347.737030,639.258850 
	C340.253632,639.212891 332.769165,639.263672 325.285797,639.341675 
	C322.339600,639.372437 321.002838,637.911072 321.000854,635.094177 
	C320.994263,625.781250 321.023529,616.468262 321.020996,607.155334 
	C321.020203,604.268005 322.427155,602.891479 325.308228,602.904053 
	C331.794067,602.932251 338.284576,602.780334 344.764374,602.983215 
	C349.125031,603.119690 350.075928,606.336609 347.814728,613.377136 
	C343.681152,608.772461 338.354401,610.614685 333.397156,610.424438 
	C331.369751,610.346558 330.434509,611.509338 330.367554,613.541321 
	C330.291626,615.846558 331.346375,616.951538 333.607208,616.960144 
	C336.574371,616.971375 339.541565,616.962830 342.265625,616.962830 
	C343.504303,618.963196 343.592285,620.483215 342.706604,621.924500 
	C341.186401,623.070007 340.087677,621.820190 338.862976,621.556946 
	C331.937317,620.068420 330.118622,621.683472 330.276276,628.607117 
	C330.344635,631.610474 331.426422,632.855164 334.401276,632.733276 
	C337.223663,632.617615 340.054504,632.707886 343.300873,632.689331 
z"/>
<path fill="#000000" opacity="1.000000" stroke="none" 
	d="
M495.418793,618.829224 
	C494.850861,622.410828 494.653503,625.638489 496.578949,628.407288 
	C498.699402,631.456604 501.583923,633.514160 505.514008,632.301208 
	C509.319183,631.126831 511.710480,628.677124 511.734802,624.292175 
	C511.747437,622.013977 510.655273,619.061584 514.195923,618.051697 
	C518.457092,616.836182 520.942932,618.582825 521.108765,623.072632 
	C521.213257,625.901611 521.296875,628.748230 521.098206,631.566345 
	C520.934631,633.887390 522.234680,636.731934 519.256958,638.283020 
	C517.210510,639.348938 514.011292,638.562012 510.968689,636.277893 
	C510.042542,636.864502 509.105377,637.548096 508.091003,638.086304 
	C500.269836,642.235840 491.934479,639.395020 488.981110,631.070557 
	C486.215729,623.275879 486.905701,615.543762 492.136566,608.818237 
	C496.746368,602.891174 503.338715,602.043518 510.240448,602.899597 
	C516.517517,603.678162 518.160278,606.856018 515.574951,613.587341 
	C511.395569,611.902893 507.723389,607.539001 502.452728,610.299377 
	C498.989624,612.113037 496.777710,614.831970 495.418793,618.829224 
z"/>
<path fill="#000000" opacity="1.000000" stroke="none" 
	d="
M563.136230,606.346191 
	C563.190308,608.855469 563.955627,611.044312 562.585938,612.948730 
	C560.701843,613.575073 559.769836,612.055725 558.541992,611.352478 
	C552.837158,608.084351 548.503113,608.896912 544.576660,614.041931 
	C540.805054,618.984070 540.915833,626.318359 544.860474,630.097595 
	C547.196655,632.335754 549.838989,633.226807 553.067932,632.048645 
	C557.195923,630.542542 558.540955,627.266052 558.357361,623.375366 
	C558.187927,619.785339 558.776550,617.617554 563.067383,617.738281 
	C566.643494,617.838989 568.276123,619.180481 568.128967,622.814209 
	C568.001282,625.967529 568.163330,629.131409 568.120544,632.289551 
	C568.038452,638.353516 565.718262,640.277344 560.167786,637.881287 
	C557.665039,636.800842 556.178345,637.493652 554.233521,638.296753 
	C544.883789,642.157898 537.148132,638.189026 534.909241,628.412415 
	C531.280212,612.565247 541.581909,600.706238 557.195007,602.807129 
	C559.484680,603.115173 561.885620,603.414062 563.136230,606.346191 
z"/>
<path fill="#000000" opacity="1.000000" stroke="none" 
	d="
M260.135498,638.181396 
	C254.284851,640.784485 253.438034,640.394409 252.462921,634.617188 
	C251.966232,631.674561 250.552948,630.148865 247.454803,630.318726 
	C245.628174,630.418945 243.783966,630.431702 241.960358,630.303284 
	C238.532883,630.061829 236.546310,631.354492 236.337021,634.981079 
	C236.195297,637.436890 234.978912,638.955933 232.364532,639.287659 
	C227.929916,639.850281 226.496658,638.113159 228.117004,633.978760 
	C231.396149,625.611816 234.640106,617.230713 237.980835,608.888367 
	C239.170410,605.917847 240.522537,602.882690 244.424286,602.801697 
	C248.684387,602.713135 249.898666,606.079102 251.090027,609.188416 
	C254.066711,616.956970 256.919952,624.773071 259.783112,632.584656 
	C260.404694,634.280579 261.247681,635.996399 260.135498,638.181396 
M241.769745,617.488525 
	C241.396179,619.549316 240.196426,621.474304 240.759186,624.239014 
	C243.033173,624.016846 246.181686,626.090820 247.323730,623.270142 
	C248.618240,620.072876 247.206635,616.580627 244.755508,613.982971 
	C242.875473,614.291504 242.467133,615.575623 241.769745,617.488525 
z"/>
<path fill="#000000" opacity="1.000000" stroke="none" 
	d="
M159.256104,633.590210 
	C159.244659,637.892944 156.853363,638.846924 153.603912,638.551697 
	C149.854248,638.211060 149.744888,635.447449 149.998627,632.654541 
	C150.524277,626.868958 151.219055,621.098083 151.699249,615.309204 
	C151.857803,613.397644 152.514908,611.103760 150.500534,609.768494 
	C148.267731,608.288330 146.427597,609.943970 144.578156,611.023315 
	C143.589935,611.599915 142.562851,612.109863 141.553406,612.649902 
	C138.421707,606.769897 139.556702,604.652466 145.757629,604.601562 
	C152.076538,604.549744 158.396194,604.580322 164.715515,604.585022 
	C170.401825,604.589233 171.270859,606.088806 169.019180,612.005798 
	C167.635376,612.374084 166.914444,611.286438 166.037338,610.595642 
	C164.315186,609.239441 162.574692,607.682434 160.227982,608.907043 
	C157.838455,610.153870 158.286591,612.584839 158.368698,614.698792 
	C158.607513,620.847656 158.956711,626.992249 159.256104,633.590210 
z"/>
<path fill="#000000" opacity="1.000000" stroke="none" 
	d="
M351.692474,671.405273 
	C350.640961,671.934387 349.847321,672.297852 349.348358,672.903870 
	C345.655304,677.389465 342.325958,677.425232 338.526154,672.952087 
	C335.257538,669.104248 333.910187,669.235046 331.738953,673.747864 
	C331.191925,674.884888 330.674500,675.953430 329.262909,675.640869 
	C327.863708,675.331055 327.699127,674.032715 327.692413,672.850525 
	C327.665955,668.195374 327.676819,663.539734 327.708740,658.884583 
	C327.715576,657.886169 327.854156,656.878174 328.748230,656.203186 
	C330.433563,654.930786 339.901825,655.712097 341.720367,657.453064 
	C344.996460,660.589478 345.148132,664.206238 342.508362,667.742188 
	C340.623260,670.267212 341.976013,671.571472 344.025208,673.261963 
	C346.932220,668.978394 348.528778,664.285706 350.587921,659.823975 
	C351.394867,658.075378 351.903900,655.848083 354.449036,655.778809 
	C357.110535,655.706299 357.452698,658.111023 358.278656,659.787842 
	C360.186249,663.660461 361.909393,667.624695 363.672974,671.567139 
	C364.282043,672.928589 364.932709,674.340881 363.009369,676.195251 
	C359.846710,673.874268 357.103088,669.590942 351.692474,671.405273 
M333.917206,659.423401 
	C330.792114,661.188843 331.884644,663.767090 332.326294,666.348633 
	C335.698120,666.860596 339.031677,667.152039 339.688812,663.151733 
	C340.262909,659.657043 337.330566,659.337952 333.917206,659.423401 
M355.716644,667.310120 
	C357.543671,664.966492 355.832245,663.619995 354.048615,661.329224 
	C353.591248,664.140564 349.645569,666.561340 355.716644,667.310120 
z"/>
<path fill="#000000" opacity="1.000000" stroke="none" 
	d="
M424.596802,638.594482 
	C420.902161,639.041687 419.686188,637.325134 419.689301,634.268982 
	C419.698608,625.109741 419.683014,615.950500 419.647858,606.791382 
	C419.637543,604.103943 420.499969,602.164856 423.539429,602.119629 
	C426.530029,602.075073 428.244293,603.482117 428.241058,606.629822 
	C428.231689,615.788635 428.226349,624.947449 428.223877,634.106262 
	C428.223267,636.365967 427.329834,637.958008 424.596802,638.594482 
z"/>
<path fill="#000000" opacity="1.000000" stroke="none" 
	d="
M488.904358,662.242554 
	C488.893799,660.955383 488.845337,660.123535 488.893341,659.297241 
	C488.969849,657.980164 488.896271,656.478027 490.354645,655.851807 
	C492.041260,655.127686 493.185089,656.229065 494.159149,657.427368 
	C496.653290,660.495667 499.120087,663.586121 502.903625,666.531433 
	C502.903625,663.869934 502.846497,661.206726 502.926666,658.547607 
	C502.969574,657.124146 503.492828,655.827698 505.255829,655.986023 
	C507.018372,656.144409 507.182892,657.613831 507.194824,658.952698 
	C507.236145,663.597046 507.218018,668.242249 507.183502,672.886841 
	C507.174683,674.075623 506.963562,675.291687 505.601074,675.680969 
	C504.313965,676.048767 503.341614,675.295227 502.578247,674.388367 
	C499.811127,671.101318 497.090057,667.775452 493.242920,663.123657 
	C493.242920,667.347290 493.264557,670.175781 493.232788,673.003723 
	C493.219147,674.220703 492.922394,675.499512 491.524841,675.661560 
	C489.846008,675.856201 489.145203,674.559875 489.085815,673.143860 
	C488.940063,669.666321 488.957764,666.181946 488.904358,662.242554 
z"/>
<path fill="#000000" opacity="1.000000" stroke="none" 
	d="
M370.199036,668.649109 
	C369.614136,671.344116 371.661072,675.586426 367.837250,675.450012 
	C364.300293,675.323853 365.978943,671.198486 365.826416,668.786865 
	C365.627045,665.635071 365.779846,662.458679 365.841583,659.294006 
	C365.867310,657.977844 365.811401,656.494751 367.466736,656.013245 
	C368.954834,655.580322 370.002716,656.440979 370.939362,657.465149 
	C373.675110,660.456543 375.541382,664.240051 379.770782,667.333557 
	C379.770782,663.863037 379.733917,661.258484 379.787201,658.655762 
	C379.811768,657.457397 380.072327,656.187744 381.538696,656.027832 
	C383.329285,655.832642 383.857727,657.219238 383.888031,658.593201 
	C383.994385,663.419556 383.997711,668.249207 383.959412,673.076965 
	C383.949921,674.275208 383.509918,675.423218 382.128204,675.729065 
	C380.772583,676.029175 379.952454,675.093994 379.203949,674.203613 
	C376.654358,671.170715 374.141876,668.106567 371.697144,665.153320 
	C369.746460,665.872986 370.416107,667.232361 370.199036,668.649109 
z"/>
<path fill="#000000" opacity="1.000000" stroke="none" 
	d="
M317.634125,655.705200 
	C322.541168,656.158203 324.846344,658.418762 323.862488,663.032898 
	C323.519073,664.643372 323.910583,665.880981 324.440521,667.315796 
	C326.079163,671.752686 324.333099,674.830261 319.793823,675.835388 
	C319.631561,675.871338 319.465729,675.890686 319.301910,675.919922 
	C309.166992,677.726196 307.674469,676.504211 307.674072,666.399719 
	C307.674042,665.900513 307.669067,665.401245 307.676147,664.902100 
	C307.819611,654.800720 306.442657,655.723816 317.634125,655.705200 
M317.842926,672.587585 
	C319.617493,672.130188 321.121246,671.235229 320.340912,669.176941 
	C319.553833,667.100952 317.445068,667.308228 315.648438,667.316589 
	C314.035400,667.324158 312.187805,667.075439 311.604401,669.229980 
	C311.213226,670.674561 311.597260,671.970642 313.163940,672.348999 
	C314.421967,672.652832 315.774109,672.566772 317.842926,672.587585 
M313.266022,663.597046 
	C314.728149,663.594971 316.218964,663.771118 317.644531,663.541809 
	C319.129791,663.302856 320.134094,662.121094 319.314819,660.701050 
	C318.001404,658.424683 315.575256,658.857239 313.579895,659.357727 
	C311.279968,659.934570 310.848145,661.484985 313.266022,663.597046 
z"/>
<path fill="#000000" opacity="1.000000" stroke="none" 
	d="
M387.831238,673.644470 
	C387.735229,668.856323 387.863159,664.520935 387.637360,660.204041 
	C387.452087,656.661804 388.949036,655.370361 392.333923,655.653931 
	C394.153015,655.806335 395.999908,655.606750 397.823639,655.726868 
	C405.591278,656.238770 409.845673,664.496460 405.783936,671.113159 
	C402.471558,676.509155 392.787292,678.129578 387.831238,673.644470 
M392.061981,671.660767 
	C397.256348,673.431458 401.528503,671.766357 402.873840,667.470459 
	C403.716705,664.779053 402.891541,662.549316 400.851776,660.814392 
	C398.648438,658.940308 395.865936,658.778442 393.325714,659.538757 
	C390.367615,660.424072 391.881714,663.095154 391.822510,665.075684 
	C391.763458,667.049988 391.771301,669.026306 392.061981,671.660767 
z"/>
<path fill="#000000" opacity="1.000000" stroke="none" 
	d="
M241.830292,674.458740 
	C236.589081,669.671143 235.528717,665.263916 238.229416,660.618958 
	C240.745834,656.290833 246.122360,654.447632 251.344711,656.122681 
	C255.791428,657.549011 258.545776,661.711121 258.232758,666.531189 
	C257.743866,674.059570 250.343170,677.810242 241.830292,674.458740 
M245.976059,659.428650 
	C240.876495,661.962891 239.366241,666.521484 242.638962,669.982788 
	C244.666199,672.126831 247.087143,673.399902 250.183624,671.802185 
	C253.207947,670.241821 254.662872,667.822998 254.026169,664.520508 
	C253.275269,660.625793 250.524506,659.152588 245.976059,659.428650 
z"/>
<path fill="#000000" opacity="1.000000" stroke="none" 
	d="
M470.975220,658.972900 
	C471.567932,662.164246 471.665833,665.347961 469.462646,667.987183 
	C467.006805,670.929199 471.177063,672.676880 470.582397,675.307861 
	C468.156158,677.033569 467.069519,675.069031 465.842651,673.576233 
	C461.979095,668.875671 460.738617,668.944092 458.265350,674.100708 
	C457.884094,674.895691 457.552490,675.637329 456.579559,675.622070 
	C455.345032,675.602722 454.802765,674.698364 454.793823,673.654541 
	C454.749878,668.514893 454.773834,663.374268 454.819275,658.234436 
	C454.830811,656.930176 455.515625,655.889160 456.864288,655.844849 
	C461.589355,655.689453 466.571411,654.423218 470.718872,658.787781 
	C470.999207,658.998840 470.975220,658.972900 470.975220,658.972900 
M466.203644,665.025269 
	C467.581970,663.575989 467.697479,662.070374 466.236206,660.648193 
	C464.625488,659.080627 462.603577,659.026917 460.626678,659.626526 
	C458.799225,660.180786 458.951569,661.964661 458.871887,663.406433 
	C458.671295,667.036560 460.403412,667.550842 466.203644,665.025269 
z"/>
<path fill="#000000" opacity="1.000000" stroke="none" 
	d="
M544.483032,674.923828 
	C542.484558,676.856140 541.387939,675.279114 540.277161,674.104919 
	C535.110901,668.643860 534.254456,668.766357 531.104004,675.736023 
	C530.540833,675.516724 529.545105,675.401794 529.455261,675.053223 
	C527.941040,669.181824 528.594482,663.230286 528.976562,657.294189 
	C528.995056,657.007507 529.251953,656.693848 529.474976,656.469543 
	C530.824402,655.112366 539.877747,655.321411 542.020569,656.885681 
	C545.302551,659.281677 546.554199,662.795715 544.213745,666.024353 
	C541.779968,669.381653 543.142517,671.804382 544.483032,674.923828 
M534.840759,659.433472 
	C531.715942,660.063599 532.323364,662.512573 532.466919,664.581299 
	C532.608643,666.624329 534.292053,666.679749 535.822693,666.636902 
	C538.136475,666.572266 540.387634,665.925110 540.603760,663.283997 
	C540.886047,659.834595 538.342407,659.313904 534.840759,659.433472 
z"/>
<path fill="#000000" opacity="1.000000" stroke="none" 
	d="
M296.678223,658.416870 
	C298.018280,660.501770 299.019501,662.724976 297.901245,664.369934 
	C295.425354,668.011902 295.242310,671.457764 297.667542,674.869141 
	C295.993835,676.456970 294.926819,675.771362 293.888000,674.785522 
	C287.806915,669.014526 287.806213,669.015259 283.845703,675.596985 
	C282.004333,675.596619 281.769623,674.252502 281.733093,672.893799 
	C281.661774,670.242004 281.489014,667.567932 281.738739,664.939209 
	C282.021637,661.961731 279.997040,657.517700 283.290222,656.340698 
	C287.438629,654.858154 292.467438,654.448792 296.678223,658.416870 
M288.541290,659.221375 
	C284.595459,659.263062 285.196472,662.149292 285.482574,664.490173 
	C285.837311,667.393127 288.306305,666.737610 290.132263,666.574585 
	C292.315735,666.379700 293.797424,665.093689 293.739594,662.716370 
	C293.670471,659.875000 291.600128,659.376709 288.541290,659.221375 
z"/>
<path fill="#000000" opacity="1.000000" stroke="none" 
	d="
M438.719543,660.839233 
	C440.168243,658.735779 440.097809,655.522339 443.194122,655.678406 
	C446.100800,655.824768 446.366089,658.760010 447.337555,660.736145 
	C449.168732,664.461243 450.800140,668.286377 452.446075,672.099487 
	C452.957764,673.284973 453.707031,674.768372 452.086304,675.603088 
	C450.564545,676.386963 449.765839,675.059570 448.878632,674.023926 
	C445.580811,670.174194 440.365845,670.124817 437.202515,673.902405 
	C436.345764,674.925537 435.619934,676.419067 434.071991,675.579956 
	C432.132721,674.528809 433.421204,672.945557 433.951477,671.673279 
	C435.421509,668.146179 437.007782,664.667542 438.719543,660.839233 
M442.735931,667.580750 
	C447.867859,666.004333 443.594238,664.095947 443.206390,662.306824 
	C442.215210,663.980713 439.208588,665.302673 442.735931,667.580750 
z"/>
<path fill="#000000" opacity="1.000000" stroke="none" 
	d="
M524.181152,675.864868 
	C507.612396,676.449097 511.063538,676.977478 510.794830,663.847534 
	C510.741364,661.234436 509.210266,657.439270 512.405640,656.179810 
	C516.053589,654.741943 520.272156,655.508301 524.242371,655.843933 
	C524.927246,655.901855 525.307190,656.568298 525.268799,657.329407 
	C525.220032,658.296997 524.640137,658.943359 523.766052,659.035034 
	C522.118225,659.207947 520.449707,659.175415 518.791199,659.257080 
	C517.233887,659.333679 515.584351,659.548584 515.484375,661.507446 
	C515.374573,663.657715 517.136169,663.584473 518.646118,663.728088 
	C520.509338,663.905457 522.674500,663.239746 524.041382,665.364563 
	C522.937927,668.091003 520.640869,667.069458 518.858826,667.297852 
	C517.180237,667.512939 515.321350,667.396545 515.299438,669.784546 
	C515.275879,672.353455 517.142944,672.579895 519.096741,672.613647 
	C520.592468,672.639404 522.117249,672.522034 523.575867,672.775208 
	C525.442383,673.099243 526.392029,674.018005 524.181152,675.864868 
z"/>
<path fill="#000000" opacity="1.000000" stroke="none" 
	d="
M416.621460,666.740173 
	C416.617065,665.614929 416.612274,664.953308 416.610565,664.291687 
	C416.587097,655.170471 416.985687,654.837463 426.098633,655.714783 
	C430.190369,656.108704 432.462067,658.301025 432.755096,662.347107 
	C433.051117,666.434387 430.947113,669.034546 427.046844,669.843567 
	C423.800476,670.516785 419.795593,669.710754 419.718689,674.920898 
	C419.714417,675.210144 418.665497,675.723633 418.108368,675.716125 
	C416.872375,675.699707 416.478577,674.670471 416.468872,673.645203 
	C416.448578,671.498779 416.563263,669.351013 416.621460,666.740173 
M427.227692,660.098694 
	C424.746063,659.214417 422.047546,657.977844 420.550873,661.339050 
	C419.932129,662.728699 419.645782,664.827820 421.088867,665.936462 
	C422.952698,667.368286 425.176666,666.896423 427.052704,665.661926 
	C429.088989,664.321960 429.160675,662.518616 427.227692,660.098694 
z"/>
<path fill="#000000" opacity="1.000000" stroke="none" 
	d="
M277.874817,658.514404 
	C277.859985,662.270508 278.101257,665.643433 277.608398,668.905457 
	C276.879822,673.727539 273.080048,676.429260 268.323456,676.075317 
	C263.890167,675.745422 260.798370,672.636353 260.750275,667.769287 
	C260.711609,663.850708 259.762909,659.698669 261.764648,655.800598 
	C265.132233,656.947998 264.154877,659.270447 264.288177,661.071472 
	C264.447723,663.226257 264.204468,665.416321 264.433289,667.559326 
	C264.729218,670.330811 266.292572,672.476746 269.201721,672.359070 
	C271.993622,672.246216 273.670685,670.337769 273.729279,667.361694 
	C273.788300,664.365112 273.797272,661.367188 273.887634,658.371704 
	C273.919098,657.329346 274.309509,656.317200 275.450195,656.090149 
	C276.946442,655.792358 277.455078,656.896545 277.874817,658.514404 
z"/>
<path fill="#000000" opacity="1.000000" stroke="none" 
	d="
M229.881851,661.683533 
	C231.711563,659.358093 232.153595,656.063721 235.584030,655.698425 
	C237.090836,658.031433 235.284409,659.339172 234.556198,660.845093 
	C232.575241,664.941895 228.967834,668.375488 229.631378,673.539307 
	C229.755585,674.505981 229.177902,675.530334 227.974335,675.679138 
	C227.053162,675.793091 226.054184,675.218018 226.118378,674.423645 
	C226.686295,667.397278 221.285706,662.693054 218.945068,656.527527 
	C223.295151,654.794800 223.605438,658.621399 225.190369,660.419434 
	C226.417374,661.811462 226.905914,665.180115 229.881851,661.683533 
z"/>
<path fill="#000000" opacity="1.000000" stroke="none" 
	d="
M471.011230,659.011719 
	C471.117462,657.866333 471.073914,656.233459 472.365234,656.092224 
	C477.492096,655.531616 482.660950,655.120728 487.765503,656.304321 
	C487.620697,657.356750 487.624939,657.938049 487.526215,657.956055 
	C480.359711,659.266235 482.132904,664.850708 481.980469,669.505676 
	C481.953308,670.335266 482.035919,671.175842 481.931396,671.993896 
	C481.728088,673.585144 481.911407,675.750000 479.560059,675.628174 
	C477.556915,675.524414 477.760925,673.566711 477.721466,672.110901 
	C477.662933,669.953857 477.502075,667.769104 477.756317,665.640442 
	C478.305695,661.041138 476.668427,658.665833 471.389923,659.044189 
	C470.975220,658.972900 470.999207,658.998840 471.011230,659.011719 
z"/>
</svg>